<svg id="Layer_1" data-name="Layer 1" xmlns="http://www.w3.org/2000/svg" xmlns:xlink="http://www.w3.org/1999/xlink" viewBox="0 0 158.89 156.81"><defs><style>.cls-1{fill:url(#linear-gradient);}</style><linearGradient id="linear-gradient" x1="130.61" y1="330.4" x2="289.5" y2="330.4" gradientUnits="userSpaceOnUse"><stop offset="0.32" stop-color="#f0f"/><stop offset="0.95" stop-color="#ed1e79"/></linearGradient></defs><path class="cls-1" d="M256.25,252.68c-1.93,1-2.49,2.19-3.28,6.9-1.93,11.13-6.27,18.32-13.13,21.57-2.88,1.39-3.58,1.43-7.12.47a35.13,35.13,0,0,0-12.93-.86c-8.12.89-13.12,2.88-17.2,6.86-2.42,2.38-2.48,2.42-3,1.72-2.22-3.11-6.39-6.43-11.13-8.72a34.77,34.77,0,0,0-12-3.51,10.54,10.54,0,0,0-6,.53,23.33,23.33,0,0,0-4.91,2.05c-2.35,1.43-3.18,1.36-6.72-.39a20.79,20.79,0,0,1-7.86-7.86,40.41,40.41,0,0,1-3.87-12,28.25,28.25,0,0,0-1-4.51c-1.16-2.19-5.27-2.25-8.32-.13-4,2.78-9.28,13.22-11.5,22.83-1.59,6.89-1.72,13.69-.36,19,1.82,7.22,5.9,12.26,12.62,15.81l1.93,1,.13,5.3a48.35,48.35,0,0,0,.66,7.76c4.24,18.95,21.18,41,47.86,62.27,7.62,6.1,9.54,7.36,11.2,7.36,1.32,0,1.82-.3,6-3.45,2.51-1.89,6.36-4.94,8.55-6.76l4-3.35.6,2.06c2.09,7.29,4.87,12.23,9.48,16.8,3.58,3.54,6.2,5.24,10.14,6.53,2.29.76,3.18.86,6.79.86a24.35,24.35,0,0,0,12.76-3.08,28.64,28.64,0,0,0,15.12-19.39c.23-1.1.46-2.06.5-2.12a12.11,12.11,0,0,1,2.08,1.92c1.89,2,2,2,3.62,2a3.46,3.46,0,0,0,3.71-2.48c.66-2,.23-2.79-4.68-8s-5.3-5.6-6.66-5.93-2.05.1-7.89,3.68c-6.23,3.81-6.95,4.51-6.95,6.59a2.9,2.9,0,0,0,1.12,2.65c1.56,1.56,3.05,1.53,5.67,0a7,7,0,0,1,2.09-1c.26.3-.6,3.15-1.56,5.31A20.92,20.92,0,0,1,246,401.15c-4.54,0-7.46-1.26-11.24-4.87a28.86,28.86,0,0,1-8.48-17.83L226,376.2l4.77-4.88c10.77-11,18-20.61,22.93-30.55,4.37-8.78,6-15,6-23.06v-5l1.69-.89c6-3.12,10.58-9.48,12.13-16.77a51,51,0,0,0,.17-15.58c-2-12.23-8-24.65-13-26.88A4.28,4.28,0,0,0,256.25,252.68Zm-115.5,13.76c2.16,8.38,6.73,15.67,12.26,19.52,1,.66,1.83,1.26,1.83,1.29s-1.4,1.46-3.09,3.18A33.18,33.18,0,0,0,144,302.29c-.66,1.76-1.26,3.25-1.33,3.32a8.47,8.47,0,0,1-1.95-1c-3.58-2.15-6.07-5.73-7.29-10.57s-.47-13.48,1.88-20.64c1.07-3.22,4.28-10.31,4.54-10A20.53,20.53,0,0,1,140.75,266.44Zm122,2.28c3.35,8.26,4.67,18.1,3.31,24.49a18.88,18.88,0,0,1-4.57,8.92c-1.56,1.56-3.78,3.11-4,2.78-.07-.06-.6-1.32-1.19-2.85-2-5-6-10.64-9.58-13.45L245,287.28l1.56-1.06c4.28-2.88,7.16-6.4,9.88-11.9a50.52,50.52,0,0,0,2.62-6.79c.49-1.72,1-3.38,1.06-3.65C260.32,263.26,261.12,264.75,262.71,268.72Zm-80,27.81a3.46,3.46,0,0,1,2,3.58,2.78,2.78,0,0,1-1,2.55,4.63,4.63,0,0,1-1.72,1.13c-6.4,1.26-9.25,2.58-12,5.47-2.15,2.25-3.48,4.74-4.71,8.81-1.29,4.28-1.49,4.74-2.41,5.47a4.48,4.48,0,0,1-4.35.17,4.68,4.68,0,0,1-2-3.38c0-1.6,1.82-7.26,3.38-10.38a18.11,18.11,0,0,1,4.71-6.46c3.91-3.88,7.32-5.7,13.12-7C180.22,295.93,181.55,296,182.67,296.53Z" transform="translate(-125.11 -252)"/></svg>