<svg id="Layer_1" data-name="Layer 1" xmlns="http://www.w3.org/2000/svg" xmlns:xlink="http://www.w3.org/1999/xlink" viewBox="0 0 744.89 156.81"><defs><style>.cls-1{fill:url(#linear-gradient);}.cls-2{fill:#4a7dff;}</style><linearGradient id="linear-gradient" x1="130.61" y1="330.4" x2="289.5" y2="330.4" gradientUnits="userSpaceOnUse"><stop offset="0.32" stop-color="#f0f"/><stop offset="0.95" stop-color="#ed1e79"/></linearGradient></defs><path class="cls-1" d="M256.25,252.68c-1.93,1-2.49,2.19-3.28,6.9-1.93,11.13-6.27,18.32-13.13,21.57-2.88,1.39-3.58,1.43-7.12.47a35.13,35.13,0,0,0-12.93-.86c-8.12.89-13.12,2.88-17.2,6.86-2.42,2.38-2.48,2.42-3,1.72-2.22-3.11-6.39-6.43-11.13-8.72a34.77,34.77,0,0,0-12-3.51,10.54,10.54,0,0,0-6,.53,23.33,23.33,0,0,0-4.91,2.05c-2.35,1.43-3.18,1.36-6.72-.39a20.79,20.79,0,0,1-7.86-7.86,40.41,40.41,0,0,1-3.87-12,28.25,28.25,0,0,0-1-4.51c-1.16-2.19-5.27-2.25-8.32-.13-4,2.78-9.28,13.22-11.5,22.83-1.59,6.89-1.72,13.69-.36,19,1.82,7.22,5.9,12.26,12.62,15.81l1.93,1,.13,5.3a48.35,48.35,0,0,0,.66,7.76c4.24,18.95,21.18,41,47.86,62.27,7.62,6.1,9.54,7.36,11.2,7.36,1.32,0,1.82-.3,6-3.45,2.51-1.89,6.36-4.94,8.55-6.76l4-3.35.6,2.06c2.09,7.29,4.87,12.23,9.48,16.8,3.58,3.54,6.2,5.24,10.14,6.53,2.29.76,3.18.86,6.79.86a24.35,24.35,0,0,0,12.76-3.08,28.64,28.64,0,0,0,15.12-19.39c.23-1.1.46-2.06.5-2.12a12.11,12.11,0,0,1,2.08,1.92c1.89,2,2,2,3.62,2a3.46,3.46,0,0,0,3.71-2.48c.66-2,.23-2.79-4.68-8s-5.3-5.6-6.66-5.93-2.05.1-7.89,3.68c-6.23,3.81-6.95,4.51-6.95,6.59a2.9,2.9,0,0,0,1.12,2.65c1.56,1.56,3.05,1.53,5.67,0a7,7,0,0,1,2.09-1c.26.3-.6,3.15-1.56,5.31A20.92,20.92,0,0,1,246,401.15c-4.54,0-7.46-1.26-11.24-4.87a28.86,28.86,0,0,1-8.48-17.83L226,376.2l4.77-4.88c10.77-11,18-20.61,22.93-30.55,4.37-8.78,6-15,6-23.06v-5l1.69-.89c6-3.12,10.58-9.48,12.13-16.77a51,51,0,0,0,.17-15.58c-2-12.23-8-24.65-13-26.88A4.28,4.28,0,0,0,256.25,252.68Zm-115.5,13.76c2.16,8.38,6.73,15.67,12.26,19.52,1,.66,1.83,1.26,1.83,1.29s-1.4,1.46-3.09,3.18A33.18,33.18,0,0,0,144,302.29c-.66,1.76-1.26,3.25-1.33,3.32a8.47,8.47,0,0,1-1.95-1c-3.58-2.15-6.07-5.73-7.29-10.57s-.47-13.48,1.88-20.64c1.07-3.22,4.28-10.31,4.54-10A20.53,20.53,0,0,1,140.75,266.44Zm122,2.28c3.35,8.26,4.67,18.1,3.31,24.49a18.88,18.88,0,0,1-4.57,8.92c-1.56,1.56-3.78,3.11-4,2.78-.07-.06-.6-1.32-1.19-2.85-2-5-6-10.64-9.58-13.45L245,287.28l1.56-1.06c4.28-2.88,7.16-6.4,9.88-11.9a50.52,50.52,0,0,0,2.62-6.79c.49-1.72,1-3.38,1.06-3.65C260.32,263.26,261.12,264.75,262.71,268.72Zm-80,27.81a3.46,3.46,0,0,1,2,3.58,2.78,2.78,0,0,1-1,2.55,4.63,4.63,0,0,1-1.72,1.13c-6.4,1.26-9.25,2.58-12,5.47-2.15,2.25-3.48,4.74-4.71,8.81-1.29,4.28-1.49,4.74-2.41,5.47a4.48,4.48,0,0,1-4.35.17,4.68,4.68,0,0,1-2-3.38c0-1.6,1.82-7.26,3.38-10.38a18.11,18.11,0,0,1,4.71-6.46c3.91-3.88,7.32-5.7,13.12-7C180.22,295.93,181.55,296,182.67,296.53Z" transform="translate(-125.11 -252)"/><path class="cls-2" d="M332.71,367.82a7,7,0,0,1-1.93-5.23V298.24a6.6,6.6,0,0,1,1.82-4.95,6.88,6.88,0,0,1,5-1.76h27.06q12.43,0,19.36,6.22T391,315.18q0,11.22-6.93,17.49t-19.36,6.27H345v23.65a6.63,6.63,0,0,1-7.15,7.15A6.9,6.9,0,0,1,332.71,367.82Zm44.82-52.53q0-12.75-14.63-12.76H345v25.52H362.9Q377.53,328.05,377.53,315.29Z" transform="translate(-125.11 -252)"/><path class="cls-2" d="M448.81,316a6.18,6.18,0,0,1,1.87,4.73v42.68a5.94,5.94,0,0,1-1.93,4.62,7.09,7.09,0,0,1-5,1.76,6.63,6.63,0,0,1-4.73-1.65,5.89,5.89,0,0,1-1.76-4.51v-2.75a17.54,17.54,0,0,1-6.82,6.77,19.79,19.79,0,0,1-9.68,2.36Q401,370,401,347.74V320.68a6.18,6.18,0,0,1,1.87-4.73,7,7,0,0,1,4.95-1.76,7.1,7.1,0,0,1,5.06,1.76,6.18,6.18,0,0,1,1.87,4.73v27.17q0,5.73,2.31,8.47c1.54,1.84,4,2.75,7.26,2.75a11.83,11.83,0,0,0,9.18-3.79q3.46-3.79,3.47-10.07V320.68A6.18,6.18,0,0,1,438.8,316a7,7,0,0,1,4.95-1.76A7.1,7.1,0,0,1,448.81,316Z" transform="translate(-125.11 -252)"/><path class="cls-2" d="M499.52,315.4a5.39,5.39,0,0,1,1.65,4.29,6,6,0,0,1-1.43,4.4c-.95,1-2.68,1.58-5.17,1.87l-3.3.33q-6.5.66-9.52,4.4a14.44,14.44,0,0,0-3,9.35v23.1a6.12,6.12,0,0,1-2,4.9,7.35,7.35,0,0,1-4.95,1.7,7.16,7.16,0,0,1-4.9-1.7,6.21,6.21,0,0,1-1.92-4.9V320.57a5.9,5.9,0,0,1,1.92-4.73,7.11,7.11,0,0,1,4.79-1.65,6.62,6.62,0,0,1,4.62,1.6,5.84,5.84,0,0,1,1.76,4.56v4.4a16.28,16.28,0,0,1,6.21-7.48,19.08,19.08,0,0,1,9.19-3l1.54-.11A6,6,0,0,1,499.52,315.4Z" transform="translate(-125.11 -252)"/><path class="cls-2" d="M508,302.37a6.93,6.93,0,0,1-2.2-5.34,6.74,6.74,0,0,1,2.2-5.28,9.81,9.81,0,0,1,11.82,0,6.66,6.66,0,0,1,2.26,5.28,7,7,0,0,1-2.2,5.34,9.71,9.71,0,0,1-11.88,0ZM509,368a6.21,6.21,0,0,1-1.92-4.9V320.68a6,6,0,0,1,1.92-4.84,7.28,7.28,0,0,1,4.9-1.65,7.47,7.47,0,0,1,5,1.65,6,6,0,0,1,2,4.84v42.46a6.12,6.12,0,0,1-2,4.9,7.35,7.35,0,0,1-5,1.7A7.16,7.16,0,0,1,509,368Z" transform="translate(-125.11 -252)"/><path class="cls-2" d="M570.8,364.46a4.49,4.49,0,0,1-2.15,4,10.25,10.25,0,0,1-6.1,1.15l-3-.22q-18.48-1.32-18.48-19.8v-24h-5.5a7,7,0,0,1-4.57-1.32,5.46,5.46,0,0,1,0-7.7,7,7,0,0,1,4.57-1.32h5.5V305.17a6.18,6.18,0,0,1,1.87-4.73,7.08,7.08,0,0,1,5.06-1.76,7,7,0,0,1,5,1.76,6.22,6.22,0,0,1,1.87,4.73v10.12h9.35a7,7,0,0,1,4.56,1.32,5.43,5.43,0,0,1,0,7.7,7,7,0,0,1-4.56,1.32h-9.35v25q0,8.14,7.48,8.69l3,.22C569,359.73,570.8,361.38,570.8,364.46Z" transform="translate(-125.11 -252)"/><path class="cls-2" d="M618.7,315.24a6,6,0,0,1,3.25-.94,6.92,6.92,0,0,1,4.56,1.71,5.31,5.31,0,0,1,2,4.23,5.65,5.65,0,0,1-.66,2.53l-30,62.92a6.14,6.14,0,0,1-5.83,3.74,6.79,6.79,0,0,1-4.46-1.59,5,5,0,0,1-1.92-4,7.14,7.14,0,0,1,.66-2.75l7.48-15.73-20.46-42.57a5.51,5.51,0,0,1-.55-2.53,5.38,5.38,0,0,1,2.14-4.29,7.52,7.52,0,0,1,4.9-1.76,6.5,6.5,0,0,1,3.41.94,6.27,6.27,0,0,1,2.42,2.91l15.4,34,15.29-33.88A6.29,6.29,0,0,1,618.7,315.24Z" transform="translate(-125.11 -252)"/><path class="cls-2" d="M687.89,367.71a6.93,6.93,0,0,1-1.93-5.12v-59.4h-20q-6.6,0-6.6-5.83t6.6-5.83h54.23q6.6,0,6.6,5.83t-6.6,5.83h-20v59.4a6.61,6.61,0,0,1-7,7A7.05,7.05,0,0,1,687.89,367.71Z" transform="translate(-125.11 -252)"/><path class="cls-2" d="M770.94,355.77a6,6,0,0,1,1.15,3.85c0,2.28-1.35,4.18-4.07,5.72a36.16,36.16,0,0,1-8.47,3.36,35,35,0,0,1-9,1.26q-13,0-20.57-7.48T722.37,342a31.41,31.41,0,0,1,3.3-14.63,24,24,0,0,1,9.3-9.9A26.38,26.38,0,0,1,748.55,314a24.43,24.43,0,0,1,12.65,3.19,21.65,21.65,0,0,1,8.36,9,29.94,29.94,0,0,1,3,13.75c0,3.16-1.39,4.73-4.18,4.73H735.9q.66,7.59,4.29,11.17t10.56,3.57a20,20,0,0,0,6.22-.88,58.37,58.37,0,0,0,6.1-2.42,12.23,12.23,0,0,1,4.84-1.76A3.72,3.72,0,0,1,770.94,355.77Zm-31-28.6q-3.36,3.52-4,10.12h24.86q-.21-6.71-3.3-10.17t-8.58-3.47A11.82,11.82,0,0,0,739.92,327.17Z" transform="translate(-125.11 -252)"/><path class="cls-2" d="M783.86,365.23a6.57,6.57,0,0,1-3.52-5.94,5.25,5.25,0,0,1,1.21-3.57,3.81,3.81,0,0,1,3-1.38,12.18,12.18,0,0,1,5.17,1.76,47.14,47.14,0,0,0,6.44,2.53,26.07,26.07,0,0,0,7.42.88,14.12,14.12,0,0,0,7.21-1.54,4.76,4.76,0,0,0,2.58-4.29,4.18,4.18,0,0,0-1-3,9.66,9.66,0,0,0-3.74-2,80.29,80.29,0,0,0-8.2-2.15q-9.78-2-14-5.61t-4.24-10a14.48,14.48,0,0,1,2.86-8.74,18.58,18.58,0,0,1,7.87-6.05A28.65,28.65,0,0,1,804.21,314a34.13,34.13,0,0,1,8.91,1.16,27.22,27.22,0,0,1,7.7,3.35,6.64,6.64,0,0,1,3.52,5.83,5.63,5.63,0,0,1-1.21,3.69,3.67,3.67,0,0,1-3,1.48,5.94,5.94,0,0,1-2.36-.49c-.77-.33-1.74-.83-2.92-1.49a45.52,45.52,0,0,0-5.5-2.47,17.12,17.12,0,0,0-5.72-.83,11.05,11.05,0,0,0-6.43,1.65,5.22,5.22,0,0,0-2.37,4.51,4.57,4.57,0,0,0,2.42,4.18q2.43,1.44,9.35,2.86a53.29,53.29,0,0,1,11.55,3.52,13.52,13.52,0,0,1,6,4.95,14.36,14.36,0,0,1,1.81,7.59,14.1,14.1,0,0,1-6.21,12Q813.56,370,803.22,370,791.24,370,783.86,365.23Z" transform="translate(-125.11 -252)"/><path class="cls-2" d="M870,364.46a4.48,4.48,0,0,1-2.14,4,10.28,10.28,0,0,1-6.11,1.15l-3-.22q-18.48-1.32-18.48-19.8v-24h-5.5a7,7,0,0,1-4.56-1.32,5.43,5.43,0,0,1,0-7.7,7,7,0,0,1,4.56-1.32h5.5V305.17a6.22,6.22,0,0,1,1.87-4.73,7.12,7.12,0,0,1,5.06-1.76,6.92,6.92,0,0,1,4.95,1.76,6.18,6.18,0,0,1,1.87,4.73v10.12h9.35a7,7,0,0,1,4.57,1.32,5.46,5.46,0,0,1,0,7.7,7,7,0,0,1-4.57,1.32H854v25q0,8.14,7.48,8.69l3,.22Q870,359.84,870,364.46Z" transform="translate(-125.11 -252)"/></svg>